<svg aria-hidden="true" style="position: absolute; width: 0; height: 0; overflow: hidden;" version="1.1" xmlns="http://www.w3.org/2000/svg" xmlns:xlink="http://www.w3.org/1999/xlink">
<defs>
<symbol id="menu" viewBox="0 0 32 32">
<path d="M16 10c1.105 0 2-0.895 2-2s-0.895-2-2-2c-1.105 0-2 0.895-2 2s0.895 2 2 2z"></path>
<path d="M16 18c1.105 0 2-0.895 2-2s-0.895-2-2-2c-1.105 0-2 0.895-2 2s0.895 2 2 2z"></path>
<path d="M16 26c1.105 0 2-0.895 2-2s-0.895-2-2-2c-1.105 0-2 0.895-2 2s0.895 2 2 2z"></path>
</symbol>
<symbol id="question" viewBox="0 0 32 32">
<path d="M18 22.5c0 0.396-0.117 0.782-0.337 1.111s-0.532 0.585-0.898 0.737c-0.365 0.151-0.768 0.191-1.155 0.114s-0.744-0.268-1.024-0.547c-0.28-0.28-0.47-0.636-0.547-1.024s-0.037-0.79 0.114-1.155 0.408-0.678 0.737-0.898c0.329-0.22 0.716-0.337 1.111-0.337 0.53 0 1.039 0.211 1.414 0.586s0.586 0.884 0.586 1.414zM29.5 16c0 2.67-0.792 5.28-2.275 7.5s-3.592 3.95-6.059 4.972c-2.467 1.022-5.181 1.289-7.8 0.768s-5.024-1.807-6.912-3.695-3.174-4.294-3.695-6.912c-0.521-2.619-0.254-5.333 0.768-7.8s2.752-4.575 4.972-6.059c2.22-1.483 4.83-2.275 7.5-2.275 3.579 0.004 7.011 1.428 9.542 3.958s3.954 5.962 3.958 9.542zM26.5 16c0-2.077-0.616-4.107-1.77-5.834s-2.794-3.073-4.712-3.867c-1.919-0.795-4.030-1.003-6.067-0.598s-3.908 1.405-5.376 2.874-2.468 3.339-2.874 5.376c-0.405 2.037-0.197 4.148 0.598 6.067s2.141 3.559 3.867 4.712 3.757 1.77 5.833 1.77c2.784-0.003 5.453-1.11 7.421-3.079s3.076-4.637 3.079-7.421zM16 8c-3.033 0-5.5 2.242-5.5 5v0.5c0 0.398 0.158 0.779 0.439 1.061s0.663 0.439 1.061 0.439c0.398 0 0.779-0.158 1.061-0.439s0.439-0.663 0.439-1.061v-0.5c0-1.102 1.125-2 2.5-2s2.5 0.898 2.5 2c0 1.103-1.125 2-2.5 2-0.398 0-0.779 0.158-1.061 0.439s-0.439 0.663-0.439 1.061v1c-0.001 0.371 0.135 0.728 0.383 1.004s0.588 0.451 0.956 0.491c0.369 0.040 0.739-0.058 1.039-0.275s0.51-0.537 0.588-0.9c2.323-0.585 4.034-2.524 4.034-4.82 0-2.758-2.467-5-5.5-5z"></path>
</symbol>
<symbol id="arrow-right" viewBox="0 0 32 32">
<path d="M16 32c-2.213 0-4.293-0.42-6.24-1.261-1.973-0.851-3.658-2.004-5.081-3.419l0.001 0.001c-1.416-1.422-2.568-3.107-3.378-4.976l-0.040-0.105c-0.84-1.947-1.261-4.027-1.261-6.24s0.42-4.293 1.261-6.24c0.84-1.947 1.98-3.64 3.419-5.080 1.422-1.416 3.107-2.568 4.976-3.378l0.104-0.040c1.947-0.84 4.027-1.261 6.24-1.261s4.293 0.42 6.24 1.261c1.947 0.84 3.64 1.98 5.080 3.419 1.416 1.422 2.57 3.107 3.381 4.976l0.040 0.104c0.84 1.947 1.26 4.027 1.259 6.24 0 2.213-0.42 4.293-1.261 6.24-0.851 1.973-2.004 3.658-3.419 5.081l0.001-0.001c-1.422 1.416-3.107 2.57-4.976 3.381l-0.105 0.040c-1.947 0.84-4.027 1.26-6.24 1.259zM16.32 17.6l-1.44 1.44c-0.293 0.293-0.44 0.667-0.44 1.12s0.147 0.827 0.44 1.12c0.293 0.293 0.667 0.44 1.12 0.44s0.827-0.147 1.12-0.44l4.16-4.16c0.32-0.32 0.48-0.693 0.48-1.12s-0.16-0.8-0.48-1.12l-4.16-4.16c-0.293-0.293-0.667-0.44-1.12-0.44s-0.827 0.147-1.12 0.44c-0.293 0.293-0.44 0.667-0.44 1.12s0.147 0.827 0.44 1.12l1.44 1.44h-5.12c-0.453 0-0.833 0.153-1.141 0.461-0.307 0.307-0.46 0.687-0.459 1.139 0 0.453 0.153 0.833 0.461 1.141 0.307 0.307 0.687 0.46 1.139 0.459h5.12z"></path>
</symbol>
<symbol id="arrow-left" viewBox="0 0 32 32">
<path d="M16 0c2.213 0 4.293 0.42 6.24 1.261 1.947 0.84 3.64 1.98 5.080 3.419 1.416 1.422 2.569 3.107 3.378 4.976l0.040 0.104c0.84 1.947 1.26 4.027 1.261 6.24 0 2.213-0.42 4.293-1.261 6.24-0.851 1.973-2.004 3.658-3.419 5.081l0.001-0.001c-1.422 1.416-3.107 2.569-4.976 3.378l-0.105 0.040c-1.947 0.84-4.027 1.26-6.24 1.261-2.213 0-4.293-0.42-6.24-1.261-1.973-0.851-3.658-2.004-5.081-3.419l0.001 0.001c-1.416-1.422-2.57-3.107-3.381-4.976l-0.040-0.105c-0.84-1.947-1.259-4.027-1.259-6.24s0.42-4.293 1.261-6.24c0.84-1.947 1.98-3.64 3.419-5.080 1.422-1.416 3.107-2.57 4.976-3.381l0.104-0.040c1.947-0.84 4.027-1.259 6.24-1.259zM15.68 14.4l1.44-1.44c0.293-0.293 0.44-0.667 0.44-1.12s-0.147-0.827-0.44-1.12c-0.293-0.293-0.667-0.44-1.12-0.44s-0.827 0.147-1.12 0.44l-4.16 4.16c-0.32 0.32-0.48 0.693-0.48 1.12s0.16 0.8 0.48 1.12l4.16 4.16c0.293 0.293 0.667 0.44 1.12 0.44s0.827-0.147 1.12-0.44c0.293-0.293 0.44-0.667 0.44-1.12s-0.147-0.827-0.44-1.12l-1.44-1.44h5.12c0.453 0 0.833-0.153 1.141-0.461 0.307-0.307 0.46-0.687 0.459-1.139 0-0.453-0.153-0.833-0.461-1.141-0.28-0.284-0.669-0.459-1.098-0.459-0.014 0-0.028 0-0.043 0.001l0.002-0h-5.12z"></path>
</symbol>
<symbol id="close" viewBox="0 0 32 32">
<path d="M27.307 4.683c-2.889-2.895-6.882-4.685-11.295-4.685-0.007 0-0.014 0-0.021 0h0.001c-8.837 0-16 7.164-16 16.001 0 4.419 1.791 8.42 4.687 11.316 2.888 2.895 6.882 4.685 11.293 4.685 0.007 0 0.015 0 0.022 0h-0.001c8.837 0 16.001-7.164 16.001-16.001 0-4.419-1.792-8.42-4.688-11.316zM25.251 25.252c-2.363 2.369-5.631 3.835-9.242 3.835-0.006 0-0.011 0-0.017 0h0.001c-7.231 0-13.092-5.861-13.092-13.092 0-0.005 0-0.010 0-0.016 0-3.61 1.466-6.878 3.834-9.241l0-0c2.363-2.369 5.63-3.835 9.239-3.835 0.006 0 0.012 0 0.018 0h-0.001c7.229 0 13.091 5.861 13.091 13.091 0 0.005 0 0.011 0 0.017 0 3.609-1.466 6.876-3.834 9.238l-0 0 0.003 0.003z"></path>
<path d="M18.049 16l5.14-5.14c0.237-0.258 0.383-0.604 0.383-0.983 0-0.803-0.651-1.455-1.455-1.455-0.38 0-0.726 0.146-0.985 0.384l0.001-0.001-5.139 5.139-5.14-5.14c-0.257-0.233-0.6-0.376-0.976-0.376-0.803 0-1.455 0.651-1.455 1.455 0 0.377 0.143 0.72 0.378 0.978l-0.001-0.001-0.003-0.001 5.14 5.14-5.139 5.14c-0.263 0.263-0.426 0.627-0.426 1.028 0 0.803 0.651 1.453 1.453 1.453 0.401 0 0.764-0.163 1.027-0.425l5.141-5.141 5.14 5.14c0.263 0.263 0.627 0.426 1.028 0.426 0.803 0 1.453-0.651 1.453-1.453 0-0.401-0.163-0.764-0.425-1.027v-0.001l-5.144-5.137z"></path>
</symbol>
</defs>
</svg>
