<svg aria-hidden="true" style="position: absolute; width: 0; height: 0; overflow: hidden;" version="1.1" xmlns="http://www.w3.org/2000/svg" xmlns:xlink="http://www.w3.org/1999/xlink">
<defs>
<symbol id="menu" viewBox="0 0 32 32">
<path d="M30 10c1.105 0 2-0.895 2-2s-0.895-2-2-2c-1.105 0-2 0.895-2 2s0.895 2 2 2z"></path>
<path d="M30 18c1.105 0 2-0.895 2-2s-0.895-2-2-2c-1.105 0-2 0.895-2 2s0.895 2 2 2z"></path>
<path d="M30 26c1.105 0 2-0.895 2-2s-0.895-2-2-2c-1.105 0-2 0.895-2 2s0.895 2 2 2z"></path>
</symbol>
<symbol id="question" viewBox="0 0 32 32">
<path d="M18 22.5c0 0.396-0.117 0.782-0.337 1.111s-0.532 0.585-0.898 0.737c-0.365 0.151-0.768 0.191-1.155 0.114s-0.744-0.268-1.024-0.547c-0.28-0.28-0.47-0.636-0.547-1.024s-0.037-0.79 0.114-1.155 0.408-0.678 0.737-0.898c0.329-0.22 0.716-0.337 1.111-0.337 0.53 0 1.039 0.211 1.414 0.586s0.586 0.884 0.586 1.414zM29.5 16c0 2.67-0.792 5.28-2.275 7.5s-3.592 3.95-6.059 4.972c-2.467 1.022-5.181 1.289-7.8 0.768s-5.024-1.807-6.912-3.695-3.174-4.294-3.695-6.912c-0.521-2.619-0.254-5.333 0.768-7.8s2.752-4.575 4.972-6.059c2.22-1.483 4.83-2.275 7.5-2.275 3.579 0.004 7.011 1.428 9.542 3.958s3.954 5.962 3.958 9.542zM26.5 16c0-2.077-0.616-4.107-1.77-5.834s-2.794-3.073-4.712-3.867c-1.919-0.795-4.030-1.003-6.067-0.598s-3.908 1.405-5.376 2.874-2.468 3.339-2.874 5.376c-0.405 2.037-0.197 4.148 0.598 6.067s2.141 3.559 3.867 4.712 3.757 1.77 5.833 1.77c2.784-0.003 5.453-1.11 7.421-3.079s3.076-4.637 3.079-7.421zM16 8c-3.033 0-5.5 2.242-5.5 5v0.5c0 0.398 0.158 0.779 0.439 1.061s0.663 0.439 1.061 0.439c0.398 0 0.779-0.158 1.061-0.439s0.439-0.663 0.439-1.061v-0.5c0-1.102 1.125-2 2.5-2s2.5 0.898 2.5 2c0 1.103-1.125 2-2.5 2-0.398 0-0.779 0.158-1.061 0.439s-0.439 0.663-0.439 1.061v1c-0.001 0.371 0.135 0.728 0.383 1.004s0.588 0.451 0.956 0.491c0.369 0.040 0.739-0.058 1.039-0.275s0.51-0.537 0.588-0.9c2.323-0.585 4.034-2.524 4.034-4.82 0-2.758-2.467-5-5.5-5z"></path>
</symbol>
</defs>
</svg>
