<svg xmlns="http://www.w3.org/2000/svg" width="16" height="16" fill="none"><path fill="#EA596E" d="M13.287 11.852a1.86 1.86 0 0 1-.065.426c-.236.953-1.284 2.023-2.759 1.926-1.337-.088-2.426-.73-2.426-1.63 0-.9 1.087-1.63 2.426-1.63 1.34 0 2.816.008 2.824.908Z"/><path fill="#DD2E44" d="M10.463 11.095c-.72 0-2.362.2-2.739.2-.665 0-1.205.417-1.205.933 0 .248.127.472.33.639 0 0 .447.448 1.253.233.352-.094.926-.794 1.935-.905.503-.055 1.444.333 3.1.343.07-.153.085-.26.085-.26 0-.9-1.42-1.183-2.759-1.183Z"/><path fill="#F4ABBA" d="M13.222 12.278s.97-.197 1.574-.99c.704-.927.612-1.917.612-1.917.712-1.334-.223-2.584-.223-2.584-.093-1.407-.963-1.99-.963-1.99-.565-1.343-1.814-1.704-1.814-1.704-.982-1.148-2.723-1.111-2.723-1.111s-1.63-.598-3.87.074c-.37.111-1.611.37-2.519.926C.436 4.732.22 7.464.26 7.908c.221 2.48 1.962 2.925 3.073 3.184.26.704 1.213 2 2.926 1.52 2.111-.371 3-1 3.519-1 .518 0 1.963.555 3.444.666Z"/><path fill="#EA596E" d="M7.883 8.288c1.035-.558 1.596-.506 2.09-.46.158.013.307.024.458.024.881-.02 1.596-.392 1.912-.752a.223.223 0 0 0-.335-.293c-.243.277-.844.583-1.588.6-.133.004-.267-.01-.405-.022-.531-.05-1.191-.11-2.343.512-.296.16-.7.219-1.14.263-.976-1.41-.389-2.637-.22-2.93.016.002.032.007.048.007.178 0 .357-.044.519-.135a.222.222 0 0 0-.219-.387.634.634 0 0 1-.836-.207.222.222 0 0 0-.373.24c.105.164.253.288.421.371a3.174 3.174 0 0 0 .165 3.09c-.588.057-1.177.14-1.639.438a3.192 3.192 0 0 0-.834.796c-.28-.048-1.304-.3-1.482-1.436a.8.8 0 0 0 .256-.34.223.223 0 0 0-.413-.164.343.343 0 0 1-.202.205.345.345 0 0 1-.286-.032.222.222 0 0 0-.216.389c.127.07.262.106.396.106.016 0 .032-.008.048-.009.212 1.073 1.06 1.544 1.659 1.686a1.64 1.64 0 0 0-.147.53.222.222 0 0 0 .202.241l.02.001a.222.222 0 0 0 .22-.203c.049-.539.563-1.102 1.02-1.397.429-.276 1.056-.335 1.663-.391.589-.054 1.145-.105 1.581-.341Zm5.718-.668a.224.224 0 0 0 .022.246.222.222 0 0 0 .369-.033c.008-.015.818-1.533-.699-2.553a.222.222 0 0 0-.248.369c1.175.79.582 1.923.556 1.97ZM4.39 4.03a.22.22 0 0 0 .18-.092c.645-.897 1.538-.59 1.575-.576a.222.222 0 0 0 .154-.417c-.427-.158-1.412-.208-2.09.734a.222.222 0 0 0 .181.351Zm5.81-.839a1.563 1.563 0 0 1 1.46.67.222.222 0 1 0 .383-.225 2.006 2.006 0 0 0-1.878-.888.222.222 0 1 0 .035.443Zm4.067 6.494c-.11-.006-.23.08-.24.203 0 .008-.071.764-.849 1.02a.222.222 0 1 0 .14.422c1.054-.346 1.149-1.362 1.152-1.405a.223.223 0 0 0-.203-.24Z"/><path fill="#EA596E" d="M3.265 7.526a.222.222 0 1 0 .43.116.632.632 0 0 1 .733-.45.222.222 0 1 0 .092-.436 1.046 1.046 0 0 0-.555.038 3.107 3.107 0 0 1-.416-1.77.223.223 0 0 0-.19-.249.224.224 0 0 0-.25.19c-.006.043-.125 1.03.472 2.05a1.056 1.056 0 0 0-.316.511Zm4.969-1.098a.475.475 0 0 1 .646.007.223.223 0 0 0 .377-.163.222.222 0 0 0-.067-.156.89.89 0 0 0-.354-.207c.132-.451.08-.652-.043-1.027a9.2 9.2 0 0 1-.07-.222l-.013-.044c-.162-.537-.269-.891.039-1.391a.222.222 0 0 0-.379-.233c-.412.67-.26 1.172-.085 1.753l.013.044c.026.087.05.162.073.23.11.338.143.452.009.86a.899.899 0 0 0-.45.225.222.222 0 0 0 .304.324Zm2.829-1.326a.889.889 0 0 0 .381-.085.223.223 0 0 0-.189-.402.477.477 0 0 1-.615-.203.222.222 0 1 0-.392.21c.08.149.2.266.338.348-.239.58-.103 1.196.008 1.523a.223.223 0 0 0 .36.103.223.223 0 0 0 .06-.245c-.074-.221-.219-.78 0-1.256.017.001.032.007.049.007Zm2.132 4.19a.221.221 0 0 0-.236-.207.81.81 0 0 1-.866-.757.226.226 0 0 0-.237-.207.223.223 0 0 0-.206.237c.018.262.118.499.27.691-.357.42-.825.54-1.086.571-.23.028-.433.004-.666-.024-.214-.024-.456-.052-.755-.043h-.002a1.037 1.037 0 0 0-.135-.466.223.223 0 0 0-.377.236c.06.095.07.248.07.322a2.85 2.85 0 0 0-.592.313c-.313.203-.56.364-.93.28a2.708 2.708 0 0 0-.959-.052.978.978 0 0 0-.223-.347.222.222 0 1 0-.305.323.465.465 0 0 1 .093.14c-.49.202-.736.54-.748.556a.222.222 0 0 0 .362.26c.002-.004.246-.33.727-.463.25-.068.606-.063.954.017.097.022.188.03.275.03a.864.864 0 0 1 .06.255.223.223 0 0 0 .221.21h.012a.222.222 0 0 0 .21-.233 1.344 1.344 0 0 0-.057-.305c.205-.074.383-.19.55-.299.255-.166.495-.322.81-.333.263-.009.48.016.689.04.21.025.418.041.646.028.04.112.037.263.031.313a.222.222 0 0 0 .13.23.222.222 0 0 0 .311-.173 1.282 1.282 0 0 0-.026-.436 2.076 2.076 0 0 0 1.042-.654c.22.136.477.2.736.183a.223.223 0 0 0 .207-.236Z"/></svg>